<?xml version="1.0" standalone="no"?><!DOCTYPE svg PUBLIC "-//W3C//DTD SVG 1.1//EN" "http://www.w3.org/Graphics/SVG/1.1/DTD/svg11.dtd"><svg t="1493805006110" class="icon" style="" viewBox="0 0 1024 1024" version="1.1" xmlns="http://www.w3.org/2000/svg" p-id="1113" xmlns:xlink="http://www.w3.org/1999/xlink" width="32" height="32"><defs><style type="text/css"></style></defs><path d="M311.04 266.24c0-106.24 92.16-193.28 203.52-193.28 111.36 0 200.96 85.76 200.96 193.28 0 90.88-66.56 167.68-156.16 188.16l-3.84 363.52c-6.4 53.76-83.2 53.76-89.6 0l-3.84-364.8C377.6 431.36 311.04 355.84 311.04 266.24L311.04 266.24M512 215.04c0-29.44-24.32-52.48-55.04-52.48-30.72 0-55.04 23.04-55.04 52.48 0 29.44 24.32 52.48 55.04 52.48C487.68 267.52 512 243.2 512 215.04L512 215.04M512 215.04 512 215.04z" fill="#d81e06" p-id="1114"></path><path d="M531.2 808.96l0-34.56c122.88 3.84 220.16 40.96 220.16 87.04 0 48.64-106.24 89.6-238.08 89.6-131.84 0-238.08-40.96-238.08-89.6 0-46.08 97.28-84.48 220.16-87.04l0 34.56c-102.4 2.56-183.04 25.6-183.04 52.48 0 29.44 89.6 56.32 200.96 56.32 111.36 0 200.96-28.16 200.96-56.32C714.24 833.28 634.88 810.24 531.2 808.96L531.2 808.96" fill="#d81e06" p-id="1115"></path></svg>